<?xml version="1.0" encoding="iso-8859-1"?>
<!-- Generator: Adobe Illustrator 18.0.0, SVG Export Plug-In . SVG Version: 6.00 Build 0)  -->
<!DOCTYPE svg PUBLIC "-//W3C//DTD SVG 1.1//EN" "http://www.w3.org/Graphics/SVG/1.1/DTD/svg11.dtd">
<svg version="1.1" id="Capa_1" xmlns="http://www.w3.org/2000/svg" xmlns:xlink="http://www.w3.org/1999/xlink" x="0px" y="0px"
	 viewBox="0 0 497.018 497.018" style="enable-background:new 0 0 497.018 497.018;" xml:space="preserve">
<g>
	<path d="M492.685,360.715l-46.293-46.275c-4.219-4.233-10.594-5.5-16.127-3.193c-5.537,2.285-9.135,7.675-9.135,13.658v29.728
		h-38.086v33.231h38.086v29.628c0,5.989,3.598,11.389,9.135,13.681c5.533,2.301,11.908,1.02,16.143-3.215l46.277-46.309
		C498.462,375.872,498.462,366.495,492.685,360.715z"/>
	<path d="M50.61,159.907c4.234,4.25,10.609,5.501,16.125,3.215c5.535-2.291,9.154-7.68,9.154-13.682v-29.663h39.9V86.545h-39.9
		V56.856c0-5.986-3.6-11.391-9.154-13.698c-5.516-2.284-11.877-1.034-16.125,3.231L4.333,92.666c-5.777,5.762-5.777,15.154,0,20.932
		L50.61,159.907z"/>
	<path d="M447.062,227.149V81.229c0-10.795-8.766-19.556-19.557-19.556h-154c-1.543,0-2.793-1.249-2.793-2.79V34.644
		c0-10.794-8.762-19.553-19.549-19.553h-82.594c-10.787,0-19.549,8.759-19.549,19.553v150.558
		c15.738,9.639,26.496,26.657,27.014,46.309h150.822c14.766,0,28.105,5.842,38.145,15.186h62.504
		C438.296,246.696,447.062,237.934,447.062,227.149z"/>
	<path d="M326.856,264.741H146.099c-1.799,0-3.277-1.474-3.277-3.279v-28.426c0-12.686-10.27-22.96-22.957-22.96H22.958
		c-12.688,0-22.955,10.274-22.955,22.96v225.93c0,12.685,10.268,22.961,22.955,22.961h303.898c12.69,0,22.957-10.275,22.957-22.961
		V287.704C349.814,275.015,339.546,264.741,326.856,264.741z"/>
</g>
<g>
</g>
<g>
</g>
<g>
</g>
<g>
</g>
<g>
</g>
<g>
</g>
<g>
</g>
<g>
</g>
<g>
</g>
<g>
</g>
<g>
</g>
<g>
</g>
<g>
</g>
<g>
</g>
<g>
</g>
</svg>
